PathFileType	4	(X/Y/Z)	C:\Data\4407\4407cd03.trc
DataRate	CameraRate	NumFrames	NumMarkers	Units	OrigDataRate	OrigDataStartFrame	OrigNumFrames
200.00	200.00	      6	29	mm	200.00	1251	      2000
Frame#	Time	Offset			RShoulder			RUpperArm			RElbow			RForearm			RWrist			LShoulder			LUpperArm			LElbow			LForearm			LWrist			LPSIS			RPSIS			RASIS			RThigh			RKnee			RShank			RAnkle			RHeel			RLat5			RToe			LASIS			LThigh			LKnee			LShank			LAnkle			LHeel			LLat5			LToe			
        X1	Y1	Z1	X2	Y2	Z2	X3	Y3	Z3	X4	Y4	Z4	X5	Y5	Z5	X6	Y6	Z6	X7	Y7	Z7	X8	Y8	Z8	X9	Y9	Z9	X10	Y10	Z10	X11	Y11	Z11	X12	Y12	Z12	X13	Y13	Z13	X14	Y14	Z14	X15	Y15	Z15	X16	Y16	Z16	X17	Y17	Z17	X18	Y18	Z18	X19	Y19	Z19	X20	Y20	Z20	X21	Y21	Z21	X22	Y22	Z22	X23	Y23	Z23	X24	Y24	Z24	X25	Y25	Z25	X26	Y26	Z26	X27	Y27	Z27	X28	Y28	Z28	X29	Y29	Z29	

1251	6.250	362.70151	-136.65698	1433.60339	503.76199	-57.39258	1563.13599	499.36383	-209.23219	1452.43408	583.60950	-272.64722	1320.79895	539.66553	-171.33035	1191.20032	583.11505	-39.37965	1199.94360	173.43890	28.81132	1554.90979	89.83659	-28.69973	1352.09241	32.05892	43.59295	1248.59033	168.50079	137.08449	1241.75122	239.00034	193.50670	1368.67346	316.52750	-132.48059	1080.96082	366.34485	-133.65298	1075.45557	463.59650	70.39153	1058.23108	422.36688	155.61983	766.92084	479.69351	147.77328	575.75378	439.09708	191.68364	511.86884	431.24365	184.76617	153.94203	375.30939	131.52330	131.21671	460.95483	325.69568	93.76491	359.21750	341.82721	120.66370	217.45140	75.25780	1032.48792	260.67130	38.22277	690.48950	215.64775	-83.76585	545.86835	265.90201	-120.54092	471.36179	279.69772	-448.10321	329.81464	326.27014	-476.97968	385.15857	292.05789	-462.76041	166.85497	399.43665	-445.39612	186.12198	
1252	6.255	363.17807	-136.69052	1431.70789	504.37009	-57.57706	1560.41467	500.16418	-209.17325	1448.88110	583.68054	-271.21478	1316.08179	540.41687	-168.83514	1187.11597	583.65332	-37.79629	1197.25903	173.90935	29.14444	1552.46130	90.46113	-30.77876	1350.51196	32.23716	40.44713	1246.39185	168.67400	134.00977	1236.21021	240.53230	193.27231	1361.29968	315.73700	-132.68507	1077.58557	365.47989	-134.06105	1072.45251	464.14542	69.54042	1056.87830	421.68295	154.75314	768.00519	478.67624	146.62344	573.93475	437.72818	191.07123	508.63098	428.91360	178.00723	150.72073	372.82938	124.24337	129.54990	458.21356	317.59122	87.76206	356.42902	334.42407	115.31643	218.09192	75.93158	1030.77783	260.24091	43.23817	688.36963	214.61385	-76.44566	541.95923	264.74524	-114.56130	467.74677	279.06427	-446.22845	335.90814	326.41135	-473.52945	391.63620	291.43628	-464.42975	173.44131	399.53146	-446.27008	192.14140	
1253	6.260	363.66675	-136.82108	1429.47925	504.95581	-57.66734	1557.39307	501.27563	-208.81160	1444.83936	583.95917	-269.42737	1310.95520	541.25336	-166.16872	1182.73364	584.11005	-35.98337	1194.23682	174.45381	29.56180	1549.76221	91.31561	-33.17366	1348.65784	32.66350	37.04503	1243.81665	170.15355	133.94110	1228.34985	241.98836	193.04655	1353.51050	314.74622	-132.84042	1074.03687	364.51355	-134.55363	1069.28833	464.69357	68.57656	1055.67212	420.61755	154.50731	768.88409	477.83145	145.77132	571.75470	436.62811	189.12369	505.07431	426.45319	170.65471	147.13770	370.74423	116.45534	127.87853	455.33438	308.95511	81.19112	353.34229	325.61688	109.32150	218.57434	76.33115	1028.66699	260.04895	48.03629	686.00659	213.29552	-69.10750	537.95166	263.56415	-108.34930	463.94507	278.99179	-443.96472	341.33282	325.69479	-469.71136	398.04477	291.12503	-466.24850	179.80139	399.16348	-446.63364	197.79292	
1254	6.265	364.04770	-137.14351	1426.99500	505.61819	-57.78756	1554.15015	502.28824	-208.54253	1440.54602	584.50012	-267.47775	1305.56543	542.08734	-163.29430	1177.95520	583.78387	-33.62676	1189.62292	174.96187	29.90127	1546.72852	92.04865	-35.46624	1346.59705	32.96815	33.15096	1241.04321	169.55988	129.79883	1222.64600	243.17712	192.57834	1345.10388	313.71075	-133.17209	1070.03052	363.53348	-135.09265	1065.96130	465.60510	68.04183	1054.84277	420.01398	154.18524	769.41010	477.11673	144.22214	569.07172	435.34265	187.26842	501.39822	424.31754	162.52052	143.61803	369.00800	107.91293	125.97139	452.12665	299.52554	74.14202	350.80905	316.93982	102.74689	219.38342	76.93456	1026.27612	259.94693	53.14512	683.55609	212.21622	-61.17511	533.65936	262.45074	-101.82442	460.06079	281.26178	-441.75623	348.10001	326.95035	-466.02090	404.44019	291.00290	-467.88998	185.71001	398.43146	-446.32269	203.15294	
1255	6.270	364.41333	-137.27194	1424.28625	506.26776	-57.89618	1550.49170	503.41138	-208.34695	1435.80847	585.07098	-265.33936	1299.74780	543.24078	-160.17659	1172.80713	584.84271	-30.54303	1186.12170	175.37418	30.26101	1543.47827	93.06351	-38.19786	1344.36121	33.23648	29.29621	1237.99524	169.18895	125.35236	1216.56421	244.21898	191.90157	1336.30286	312.56503	-133.47871	1065.78442	362.34122	-135.71576	1062.44958	466.14117	67.01179	1053.19922	418.97531	154.15494	769.40588	476.38901	143.05035	566.19604	434.62180	185.04758	497.13562	422.43011	154.08357	140.08134	367.27478	98.77952	124.23890	448.61728	289.52762	66.74043	347.55692	306.94785	95.71658	220.15178	76.85914	1022.64618	259.51031	58.22187	680.64319	210.94600	-53.45640	529.38434	261.39212	-95.22215	456.00833	280.79965	-438.30020	353.30011	327.24713	-461.22388	410.27945	290.15842	-468.11768	191.59338	397.60617	-445.44733	208.28397	
1256	6.275	364.88855	-137.34090	1421.28723	506.84256	-57.99671	1546.71606	504.65759	-207.91057	1430.70935	585.78796	-263.01086	1293.60742	543.84503	-157.00522	1167.03186	586.41693	-27.27897	1183.34338	175.83800	30.63292	1539.92810	93.75281	-40.65730	1341.80933	33.55185	25.10695	1234.69177	168.56345	120.91740	1210.08655	244.99722	191.68372	1327.02588	311.40671	-133.74786	1061.30933	361.20496	-136.32397	1058.83630	466.82703	66.25738	1051.23352	418.11642	154.31769	769.14990	475.77899	141.14331	562.79694	434.17386	182.74956	492.69388	420.50839	145.03978	136.05769	365.97458	89.18372	122.28727	445.12619	279.01169	59.31295	344.12961	296.45270	88.21983	220.66054	77.27745	1019.90741	259.04337	63.61211	677.81329	209.58519	-45.81688	524.92828	260.05957	-88.43588	451.64731	280.26254	-434.50113	358.69067	326.99231	-456.03986	415.68622	288.61569	-467.28046	197.56348	396.31003	-444.06653	213.10454	
